<svg width="24" height="24" viewBox="0 0 24 24" fill="none" xmlns="http://www.w3.org/2000/svg">
<circle cx="12" cy="12" r="12" fill="#EAE9ED"/>
<path d="M7.38483 16.6154C7.17242 16.403 7.17242 16.0586 7.38483 15.8462L15.8463 7.3847C16.0587 7.17228 16.4031 7.17228 16.6155 7.3847C16.8279 7.59712 16.8279 7.94151 16.6155 8.15392L8.15406 16.6154C7.94164 16.8278 7.59725 16.8278 7.38483 16.6154Z" fill="#7E7B94"/>
<path d="M7.38465 7.38462C7.59707 7.17221 7.94146 7.17221 8.15388 7.38462L16.6153 15.8461C16.8278 16.0585 16.8278 16.4029 16.6153 16.6153C16.4029 16.8277 16.0585 16.8277 15.8461 16.6153L7.38465 8.15385C7.17224 7.94143 7.17224 7.59704 7.38465 7.38462Z" fill="#7E7B94"/>
</svg>
