<svg width="19" height="19" viewBox="0 0 19 19" fill="none" xmlns="http://www.w3.org/2000/svg">
<path fill-rule="evenodd" clip-rule="evenodd" d="M13.5802 7.22473L9.24065 12.9247C9.06205 13.1594 8.7856 13.2981 8.4911 13.3H8.48445C8.1928 13.3 7.9173 13.1651 7.7368 12.9352L5.4264 9.98355C5.1034 9.57125 5.1756 8.97372 5.58885 8.65072C6.00115 8.32677 6.59965 8.39893 6.92265 8.81313L8.474 10.7948L12.0688 6.07428C12.3861 5.65723 12.9817 5.57553 13.4007 5.89378C13.8177 6.21203 13.8985 6.80768 13.5802 7.22473ZM9.5 0C4.25315 0 0 4.25315 0 9.5C0 14.7459 4.25315 19 9.5 19C14.7469 19 19 14.7459 19 9.5C19 4.25315 14.7469 0 9.5 0Z" fill="#53BA8F"/>
</svg>
